# xmcd
#
# Track frame offsets: 
#        150
#        14447
#        31043
#        46930
#        64768
#        81413
#        96518
#        115488
#        134997
#
# Disc length: 2137 seconds
#
# Revision: 0
# Processed by: cddbd v1.5PL3 Copyright (c) Steve Scherf et al.
# Submitted via: ExactAudioCopy v0.95a4
#
DISCID=7f085709
DTITLE=Luther Allison - Night Life
DYEAR=1900
DGENRE=Blues
TTITLE0=Turn Back The Hands Of Time
TTITLE1=I Can Make It Thru The Day
TTITLE2=The Bum Is Mine
TTITLE3=Hollywood Be Thy Name
TTITLE4=That's What Love Will Do To You
TTITLE5=Night Life
TTITLE6=Full Speed Ahead
TTITLE7=Cross-Cut Saw
TTITLE8=Bloomington Closing
EXTD=
EXTT0=
EXTT1=
EXTT2=
EXTT3=
EXTT4=
EXTT5=
EXTT6=
EXTT7=
EXTT8=
PLAYORDER=
